<mxfile host="app.diagrams.net" agent="Mozilla/5.0 (Windows NT 10.0; Win64; x64) AppleWebKit/537.36 (KHTML, like Gecko) Chrome/132.0.0.0 Safari/537.36" version="26.0.14">
  <diagram name="Page-1" id="J_44Yi0tkxpnvIOxuSCq">
    <mxGraphModel dx="1100" dy="630" grid="1" gridSize="10" guides="1" tooltips="1" connect="1" arrows="1" fold="1" page="1" pageScale="1" pageWidth="850" pageHeight="1100" math="0" shadow="0">
      <root>
        <mxCell id="0" />
        <mxCell id="1" parent="0" />
        <mxCell id="laGxhtvytp-GlWva6PjV-1" value="&lt;b&gt;&lt;font style=&quot;font-size: 14px;&quot;&gt;M&lt;/font&gt;&lt;/b&gt;" style="rounded=0;whiteSpace=wrap;html=1;" vertex="1" parent="1">
          <mxGeometry x="320" y="240" width="120" height="60" as="geometry" />
        </mxCell>
        <mxCell id="laGxhtvytp-GlWva6PjV-7" style="edgeStyle=orthogonalEdgeStyle;rounded=0;orthogonalLoop=1;jettySize=auto;html=1;exitX=1;exitY=0.5;exitDx=0;exitDy=0;entryX=0;entryY=0.5;entryDx=0;entryDy=0;endArrow=none;startFill=0;" edge="1" parent="1" source="laGxhtvytp-GlWva6PjV-2" target="laGxhtvytp-GlWva6PjV-1">
          <mxGeometry relative="1" as="geometry" />
        </mxCell>
        <mxCell id="laGxhtvytp-GlWva6PjV-2" value="&lt;b&gt;P&lt;sub&gt;1&lt;/sub&gt;&lt;/b&gt;" style="ellipse;whiteSpace=wrap;html=1;aspect=fixed;" vertex="1" parent="1">
          <mxGeometry x="210" y="240" width="60" height="60" as="geometry" />
        </mxCell>
        <mxCell id="laGxhtvytp-GlWva6PjV-9" style="edgeStyle=orthogonalEdgeStyle;rounded=0;orthogonalLoop=1;jettySize=auto;html=1;exitX=0.5;exitY=0;exitDx=0;exitDy=0;entryX=0.5;entryY=1;entryDx=0;entryDy=0;endArrow=none;startFill=0;" edge="1" parent="1" source="laGxhtvytp-GlWva6PjV-3" target="laGxhtvytp-GlWva6PjV-1">
          <mxGeometry relative="1" as="geometry" />
        </mxCell>
        <mxCell id="laGxhtvytp-GlWva6PjV-3" value="&lt;b&gt;P&lt;sub&gt;2&lt;/sub&gt;&lt;/b&gt;" style="ellipse;whiteSpace=wrap;html=1;aspect=fixed;" vertex="1" parent="1">
          <mxGeometry x="350" y="340" width="60" height="60" as="geometry" />
        </mxCell>
        <mxCell id="laGxhtvytp-GlWva6PjV-8" style="edgeStyle=orthogonalEdgeStyle;rounded=0;orthogonalLoop=1;jettySize=auto;html=1;exitX=0;exitY=0.5;exitDx=0;exitDy=0;entryX=1;entryY=0.5;entryDx=0;entryDy=0;endArrow=none;startFill=0;" edge="1" parent="1" source="laGxhtvytp-GlWva6PjV-4" target="laGxhtvytp-GlWva6PjV-1">
          <mxGeometry relative="1" as="geometry" />
        </mxCell>
        <mxCell id="laGxhtvytp-GlWva6PjV-4" value="&lt;b&gt;P&lt;span style=&quot;font-size: 10px;&quot;&gt;n&lt;/span&gt;&lt;/b&gt;" style="ellipse;whiteSpace=wrap;html=1;aspect=fixed;" vertex="1" parent="1">
          <mxGeometry x="490" y="240" width="60" height="60" as="geometry" />
        </mxCell>
        <mxCell id="laGxhtvytp-GlWva6PjV-6" style="edgeStyle=orthogonalEdgeStyle;rounded=0;orthogonalLoop=1;jettySize=auto;html=1;exitX=0.5;exitY=1;exitDx=0;exitDy=0;entryX=0.5;entryY=0;entryDx=0;entryDy=0;endArrow=none;startFill=0;" edge="1" parent="1" source="laGxhtvytp-GlWva6PjV-5" target="laGxhtvytp-GlWva6PjV-1">
          <mxGeometry relative="1" as="geometry" />
        </mxCell>
        <mxCell id="laGxhtvytp-GlWva6PjV-5" value="&lt;b&gt;P&lt;sub&gt;0&lt;/sub&gt;&lt;/b&gt;" style="ellipse;whiteSpace=wrap;html=1;aspect=fixed;" vertex="1" parent="1">
          <mxGeometry x="350" y="140" width="60" height="60" as="geometry" />
        </mxCell>
        <mxCell id="laGxhtvytp-GlWva6PjV-10" value="" style="endArrow=none;dashed=1;html=1;dashPattern=1 3;strokeWidth=3;rounded=0;" edge="1" parent="1">
          <mxGeometry width="50" height="50" relative="1" as="geometry">
            <mxPoint x="450" y="340" as="sourcePoint" />
            <mxPoint x="480" y="320" as="targetPoint" />
          </mxGeometry>
        </mxCell>
      </root>
    </mxGraphModel>
  </diagram>
</mxfile>
